<?xml version="1.0" encoding="UTF-8" standalone="no"?>
<svg
   xmlns:dc="http://purl.org/dc/elements/1.1/"
   xmlns:cc="http://creativecommons.org/ns#"
   xmlns:rdf="http://www.w3.org/1999/02/22-rdf-syntax-ns#"
   xmlns:svg="http://www.w3.org/2000/svg"
   xmlns="http://www.w3.org/2000/svg"
   xmlns:sodipodi="http://sodipodi.sourceforge.net/DTD/sodipodi-0.dtd"
   xmlns:inkscape="http://www.inkscape.org/namespaces/inkscape"
   width="76.162201mm"
   height="76.162201mm"
   viewBox="0 0 76.162201 76.162201"
   version="1.1"
   id="svg8"
   sodipodi:docname="in_circle1.svg"
   inkscape:version="1.0.1 (3bc2e813f5, 2020-09-07)">
  <sodipodi:namedview
     pagecolor="#ffffff"
     bordercolor="#666666"
     borderopacity="1"
     objecttolerance="10"
     gridtolerance="10"
     guidetolerance="10"
     inkscape:pageopacity="0"
     inkscape:pageshadow="2"
     inkscape:window-width="1920"
     inkscape:window-height="1017"
     id="namedview10"
     showgrid="false"
     inkscape:zoom="1.2036126"
     inkscape:cx="143.92857"
     inkscape:cy="143.92857"
     inkscape:window-x="-8"
     inkscape:window-y="-8"
     inkscape:window-maximized="1"
     inkscape:current-layer="svg8" />
  <defs
     id="defs2" />
  <metadata
     id="metadata5">
    <rdf:RDF>
      <cc:Work
         rdf:about="">
        <dc:format>image/svg+xml</dc:format>
        <dc:type
           rdf:resource="http://purl.org/dc/dcmitype/StillImage" />
        <dc:title />
      </cc:Work>
    </rdf:RDF>
    <rdf:RDF>
      <cc:Work
         rdf:about="">
        <dc:title />
      </cc:Work>
    </rdf:RDF>
  </metadata>
  <g
     id="layer1"
     transform="translate(-65.578873,-85.04464)">
    <circle
       style="fill:#b2ebf2;fill-opacity:1;stroke:none;stroke-width:1.765"
       id="path833"
       cx="103.65997"
       cy="123.12574"
       r="38.0811" />
    <g
       aria-label="IN"
       id="text837"
       style="font-style:normal;font-variant:normal;font-weight:normal;font-stretch:normal;font-size:50.8px;line-height:1.25;font-family:Calibri;-inkscape-font-specification:Calibri;fill:#000000;fill-opacity:1;stroke:none;stroke-width:0.264583"
       transform="translate(0.55755636,-0.33453381)">
      <path
         d="m 90.664351,138.33404 q 0,0.19843 -0.09922,0.34726 -0.09922,0.14883 -0.347266,0.24805 -0.248046,0.0744 -0.669726,0.12402 -0.396875,0.0744 -1.016992,0.0744 -0.595313,0 -1.016993,-0.0744 -0.421679,-0.0496 -0.669726,-0.12402 -0.248047,-0.0992 -0.347266,-0.24805 -0.09922,-0.14883 -0.09922,-0.34726 v -30.80743 q 0,-0.19843 0.09922,-0.34726 0.124024,-0.14883 0.372071,-0.22324 0.272851,-0.0992 0.669726,-0.14883 0.42168,-0.0744 0.992188,-0.0744 0.620117,0 1.016992,0.0744 0.42168,0.0496 0.669726,0.14883 0.248047,0.0744 0.347266,0.22324 0.09922,0.14883 0.09922,0.34726 z"
         style="font-style:normal;font-variant:normal;font-weight:normal;font-stretch:normal;font-size:50.8px;font-family:Calibri;-inkscape-font-specification:Calibri;stroke-width:0.264583"
         id="path876" />
      <path
         d="m 123.45615,137.21783 q 0,0.49609 -0.17364,0.84335 -0.14882,0.34727 -0.42168,0.57051 -0.24804,0.22324 -0.5705,0.32246 -0.32246,0.0992 -0.64493,0.0992 h -1.36425 q -0.64493,0 -1.14102,-0.12402 -0.47129,-0.14883 -0.91777,-0.49609 -0.42168,-0.37208 -0.86817,-0.99219 -0.42168,-0.62012 -0.94257,-1.5875 L 106.2913,117.59732 q -0.79375,-1.41387 -1.6123,-2.95176 -0.79375,-1.5627 -1.48828,-3.02617 h -0.0496 q 0.0496,1.78594 0.0744,3.64629 0.0248,1.86035 0.0248,3.6959 v 19.37246 q 0,0.17363 -0.0992,0.34726 -0.0992,0.14883 -0.34727,0.24805 -0.22324,0.0744 -0.62011,0.12402 -0.37208,0.0744 -0.96739,0.0744 -0.59531,0 -0.99219,-0.0744 -0.372065,-0.0496 -0.595308,-0.12402 -0.223242,-0.0992 -0.32246,-0.24805 -0.09922,-0.17363 -0.09922,-0.34726 v -29.6168 q 0,-0.99219 0.545703,-1.41387 0.545705,-0.42168 1.190625,-0.42168 h 2.03399 q 0.71933,0 1.19062,0.12403 0.49609,0.12402 0.86816,0.42168 0.39688,0.27285 0.74414,0.79375 0.37208,0.49609 0.79375,1.26504 l 7.78868,14.08906 q 0.71933,1.28984 1.38906,2.53008 0.66973,1.21543 1.28984,2.40605 0.62012,1.19063 1.21543,2.35645 0.62012,1.14101 1.21543,2.30683 h 0.0248 q -0.0496,-1.95957 -0.0744,-4.06797 0,-2.1332 0,-4.09277 v -17.41289 q 0,-0.17363 0.0992,-0.32246 0.0992,-0.14883 0.32246,-0.24805 0.24805,-0.12402 0.62012,-0.17363 0.39687,-0.0496 1.01699,-0.0496 0.5457,0 0.94258,0.0496 0.39687,0.0496 0.62012,0.17363 0.22324,0.0992 0.32246,0.24805 0.0992,0.14883 0.0992,0.32246 z"
         style="font-style:normal;font-variant:normal;font-weight:normal;font-stretch:normal;font-size:50.8px;font-family:Calibri;-inkscape-font-specification:Calibri;stroke-width:0.264583"
         id="path878" />
    </g>
  </g>
</svg>
