<?xml version="1.0" encoding="UTF-8" standalone="no"?>
<svg
   xmlns:dc="http://purl.org/dc/elements/1.1/"
   xmlns:cc="http://creativecommons.org/ns#"
   xmlns:rdf="http://www.w3.org/1999/02/22-rdf-syntax-ns#"
   xmlns:svg="http://www.w3.org/2000/svg"
   xmlns="http://www.w3.org/2000/svg"
   xmlns:sodipodi="http://sodipodi.sourceforge.net/DTD/sodipodi-0.dtd"
   xmlns:inkscape="http://www.inkscape.org/namespaces/inkscape"
   width="76.162201mm"
   height="76.162201mm"
   viewBox="0 0 76.162201 76.162201"
   version="1.1"
   id="svg8"
   sodipodi:docname="in_circle2.svg"
   inkscape:version="1.0.1 (3bc2e813f5, 2020-09-07)">
  <sodipodi:namedview
     pagecolor="#ffffff"
     bordercolor="#666666"
     borderopacity="1"
     objecttolerance="10"
     gridtolerance="10"
     guidetolerance="10"
     inkscape:pageopacity="0"
     inkscape:pageshadow="2"
     inkscape:window-width="1920"
     inkscape:window-height="1017"
     id="namedview840"
     showgrid="false"
     showborder="false"
     inkscape:showpageshadow="false"
     inkscape:zoom="2.3727048"
     inkscape:cx="143.92857"
     inkscape:cy="143.92857"
     inkscape:window-x="-8"
     inkscape:window-y="-8"
     inkscape:window-maximized="1"
     inkscape:current-layer="layer1"
     inkscape:document-rotation="0" />
  <defs
     id="defs2" />
  <metadata
     id="metadata5">
    <rdf:RDF>
      <cc:Work
         rdf:about="">
        <dc:format>image/svg+xml</dc:format>
        <dc:type
           rdf:resource="http://purl.org/dc/dcmitype/StillImage" />
        <dc:title></dc:title>
      </cc:Work>
    </rdf:RDF>
    <rdf:RDF>
      <cc:Work
         rdf:about="">
        <dc:title />
      </cc:Work>
    </rdf:RDF>
  </metadata>
  <g
     id="layer1"
     transform="translate(-65.578873,-85.04464)">
    <circle
       style="fill:#03a9f4;fill-opacity:1;stroke:none;stroke-width:1.765"
       id="path833"
       cx="103.65997"
       cy="123.12574"
       r="38.0811" />
    <g
       aria-label="IN"
       id="text837"
       style="font-style:normal;font-variant:normal;font-weight:normal;font-stretch:normal;font-size:50.8px;line-height:1.25;font-family:Calibri;-inkscape-font-specification:Calibri;fill:#000000;fill-opacity:1;stroke:none;stroke-width:0.264583"
       transform="translate(0.55755636,-0.33453381)">
      <g
         aria-label="IN"
         id="text1469"
         style="font-style:normal;font-variant:normal;font-weight:normal;font-stretch:normal;font-size:35.2778px;line-height:1.25;font-family:Calibri;-inkscape-font-specification:Calibri;fill:#000000;fill-opacity:1;stroke:none;stroke-width:0.0700042">
        <path
           d="m 93.472161,131.76605 q 0,0.1378 -0.0689,0.24116 -0.0689,0.10335 -0.241157,0.17225 -0.172255,0.0517 -0.465088,0.0861 -0.275608,0.0517 -0.706245,0.0517 -0.413412,0 -0.706245,-0.0517 -0.292833,-0.0344 -0.465088,-0.0861 -0.172255,-0.0689 -0.241157,-0.17225 -0.0689,-0.10336 -0.0689,-0.24116 v -21.39406 q 0,-0.1378 0.0689,-0.24115 0.08613,-0.10336 0.258382,-0.15503 0.18948,-0.0689 0.465088,-0.10336 0.292834,-0.0517 0.68902,-0.0517 0.430637,0 0.706245,0.0517 0.292833,0.0344 0.465088,0.10336 0.172255,0.0517 0.241157,0.15503 0.0689,0.10335 0.0689,0.24115 z"
           style="font-style:normal;font-variant:normal;font-weight:normal;font-stretch:normal;font-size:35.2778px;font-family:Calibri;-inkscape-font-specification:Calibri;stroke-width:0.0700042"
           id="path1480" />
        <path
           d="m 116.24426,130.9909 q 0,0.34451 -0.12058,0.58567 -0.10335,0.24116 -0.29283,0.39619 -0.17226,0.15503 -0.39619,0.22393 -0.22393,0.0689 -0.44786,0.0689 h -0.94741 q -0.44786,0 -0.79237,-0.0861 -0.32728,-0.10335 -0.63734,-0.34451 -0.29283,-0.25838 -0.60289,-0.68902 -0.29284,-0.43063 -0.65457,-1.10243 l -7.028,-12.67796 q -0.55122,-0.98185 -1.11966,-2.04983 -0.55121,-1.08521 -1.03353,-2.10151 h -0.0345 q 0.0345,1.24023 0.0517,2.53215 0.0172,1.29191 0.0172,2.56659 v 13.45311 q 0,0.12058 -0.0689,0.24116 -0.0689,0.10335 -0.24115,0.17225 -0.15503,0.0517 -0.43064,0.0861 -0.25838,0.0517 -0.6718,0.0517 -0.41341,0 -0.68902,-0.0517 -0.258378,-0.0344 -0.413407,-0.0861 -0.15503,-0.0689 -0.223932,-0.17225 -0.0689,-0.12058 -0.0689,-0.24116 v -20.56723 q 0,-0.68902 0.378961,-0.98186 0.37896,-0.29283 0.82682,-0.29283 h 1.41249 q 0.49954,0 0.82683,0.0861 0.34451,0.0861 0.60289,0.29283 0.27561,0.18948 0.51676,0.55122 0.25839,0.34451 0.55122,0.8785 l 5.4088,9.78407 q 0.49954,0.89573 0.96463,1.757 0.46509,0.84405 0.89573,1.67088 0.43063,0.82682 0.84404,1.63642 0.43064,0.79237 0.84405,1.60197 h 0.0172 q -0.0345,-1.36082 -0.0517,-2.82498 0,-1.48139 0,-2.84221 v -12.09229 q 0,-0.12058 0.0689,-0.22393 0.0689,-0.10335 0.22394,-0.17226 0.17225,-0.0861 0.43063,-0.12058 0.27561,-0.0344 0.70625,-0.0344 0.37896,0 0.65457,0.0344 0.2756,0.0345 0.43063,0.12058 0.15503,0.0689 0.22394,0.17226 0.0689,0.10335 0.0689,0.22393 z"
           style="font-style:normal;font-variant:normal;font-weight:normal;font-stretch:normal;font-size:35.2778px;font-family:Calibri;-inkscape-font-specification:Calibri;stroke-width:0.0700042"
           id="path1482" />
      </g>
    </g>
  </g>
</svg>
