<?xml version="1.0" encoding="UTF-8" standalone="no"?>
<svg
   xmlns:dc="http://purl.org/dc/elements/1.1/"
   xmlns:cc="http://creativecommons.org/ns#"
   xmlns:rdf="http://www.w3.org/1999/02/22-rdf-syntax-ns#"
   xmlns:svg="http://www.w3.org/2000/svg"
   xmlns="http://www.w3.org/2000/svg"
   xmlns:sodipodi="http://sodipodi.sourceforge.net/DTD/sodipodi-0.dtd"
   xmlns:inkscape="http://www.inkscape.org/namespaces/inkscape"
   width="76.162201mm"
   height="76.162201mm"
   viewBox="0 0 76.162201 76.162201"
   version="1.1"
   id="svg8"
   sodipodi:docname="out_circle1.svg"
   inkscape:version="1.0.1 (3bc2e813f5, 2020-09-07)">
  <sodipodi:namedview
     pagecolor="#ffffff"
     bordercolor="#666666"
     borderopacity="1"
     objecttolerance="10"
     gridtolerance="10"
     guidetolerance="10"
     inkscape:pageopacity="0"
     inkscape:pageshadow="2"
     inkscape:window-width="1920"
     inkscape:window-height="1017"
     id="namedview11"
     showgrid="false"
     inkscape:zoom="1.69812"
     inkscape:cx="143.92857"
     inkscape:cy="143.92857"
     inkscape:window-x="-8"
     inkscape:window-y="-8"
     inkscape:window-maximized="1"
     inkscape:current-layer="svg8" />
  <defs
     id="defs2" />
  <metadata
     id="metadata5">
    <rdf:RDF>
      <cc:Work
         rdf:about="">
        <dc:format>image/svg+xml</dc:format>
        <dc:type
           rdf:resource="http://purl.org/dc/dcmitype/StillImage" />
        <dc:title />
      </cc:Work>
    </rdf:RDF>
  </metadata>
  <g
     id="layer1"
     transform="translate(-65.578873,-85.04464)">
    <circle
       style="fill:#e1bee7;fill-opacity:1;stroke:none;stroke-width:1.765"
       id="path833"
       cx="103.65997"
       cy="123.12574"
       r="38.0811" />
    <g
       aria-label="OUT"
       id="text837"
       style="font-style:normal;font-variant:normal;font-weight:normal;font-stretch:normal;font-size:35.2778px;line-height:1.25;font-family:Calibri;-inkscape-font-specification:Calibri;fill:#000000;fill-opacity:1;stroke:none;stroke-width:0.264583">
      <path
         d="m 93.939375,123.79593 q 0,2.7044 -0.637343,4.87481 -0.637343,2.17041 -1.912029,3.70348 -1.257461,1.51585 -3.16949,2.34267 -1.912029,0.8096 -4.461402,0.8096 -2.514921,0 -4.358048,-0.7407 -1.825902,-0.75792 -3.031687,-2.18764 -1.188558,-1.42971 -1.774225,-3.54845 -0.585667,-2.11873 -0.585667,-4.87481 0,-2.6355 0.637344,-4.78869 0.637343,-2.15318 1.912029,-3.6518 1.274686,-1.51584 3.186715,-2.32544 1.91203,-0.82682 4.461402,-0.82682 2.463245,0 4.289147,0.74069 1.825902,0.7407 3.031686,2.17041 1.22301,1.41249 1.808676,3.514 0.602892,2.08429 0.602892,4.78869 z m -3.117813,0.20671 q 0,-1.89481 -0.34451,-3.514 -0.327284,-1.63643 -1.119657,-2.82498 -0.775147,-1.20579 -2.084284,-1.87758 -1.309137,-0.6718 -3.238392,-0.6718 -1.929255,0 -3.238392,0.72347 -1.309137,0.72347 -2.13596,1.92926 -0.809598,1.20578 -1.171334,2.82498 -0.34451,1.60197 -0.34451,3.37619 0,1.96371 0.327285,3.61736 0.327284,1.65364 1.102431,2.85943 0.775147,1.18856 2.067059,1.86035 1.309137,0.65457 3.272843,0.65457 1.94648,0 3.272843,-0.72347 1.326362,-0.72347 2.13596,-1.94648 0.809598,-1.24024 1.154108,-2.85943 0.34451,-1.6192 0.34451,-3.42787 z"
         style="font-style:normal;font-variant:normal;font-weight:normal;font-stretch:normal;font-size:35.2778px;font-family:Calibri;-inkscape-font-specification:Calibri;stroke-width:0.264583"
         id="path1460" />
      <path
         d="m 115.38511,126.96542 q 0,2.03261 -0.60289,3.63458 -0.58567,1.58474 -1.6881,2.68717 -1.10243,1.10244 -2.68718,1.67088 -1.58474,0.56844 -3.60012,0.56844 -1.84313,0 -3.35897,-0.53399 -1.51585,-0.53399 -2.60105,-1.56752 -1.085209,-1.05076 -1.670876,-2.61828 -0.585667,-1.56752 -0.585667,-3.61735 v -13.83207 q 0,-0.1378 0.0689,-0.24115 0.0689,-0.10336 0.241157,-0.15503 0.172255,-0.0689 0.447863,-0.10336 0.275608,-0.0517 0.723471,-0.0517 0.41341,0 0.70624,0.0517 0.29284,0.0345 0.44787,0.10336 0.17225,0.0517 0.24115,0.15503 0.0689,0.10335 0.0689,0.24115 v 13.47034 q 0,1.55029 0.37896,2.7044 0.37896,1.15411 1.0852,1.92925 0.72347,0.75792 1.72255,1.15411 1.01631,0.37896 2.27377,0.37896 1.29191,0 2.29099,-0.37896 1.0163,-0.37896 1.70532,-1.13688 0.70624,-0.75792 1.06798,-1.87758 0.37896,-1.11966 0.37896,-2.61827 v -13.62537 q 0,-0.1378 0.0689,-0.24115 0.0689,-0.10336 0.24116,-0.15503 0.17225,-0.0689 0.44786,-0.10336 0.29284,-0.0517 0.72347,-0.0517 0.41341,0 0.68902,0.0517 0.29284,0.0345 0.44786,0.10336 0.17226,0.0517 0.24116,0.15503 0.0861,0.10335 0.0861,0.24115 z"
         style="font-style:normal;font-variant:normal;font-weight:normal;font-stretch:normal;font-size:35.2778px;font-family:Calibri;-inkscape-font-specification:Calibri;stroke-width:0.264583"
         id="path1462" />
      <path
         d="m 135.22887,114.18411 q 0,0.32728 -0.0344,0.56844 -0.0345,0.24115 -0.12057,0.39618 -0.0689,0.13781 -0.18949,0.20671 -0.10335,0.0689 -0.24115,0.0689 h -6.27008 v 19.327 q 0,0.1378 -0.0689,0.24116 -0.0689,0.10335 -0.24116,0.17225 -0.17225,0.0517 -0.46509,0.0861 -0.2756,0.0517 -0.70624,0.0517 -0.41341,0 -0.70625,-0.0517 -0.29283,-0.0344 -0.46509,-0.0861 -0.17225,-0.0689 -0.24115,-0.17225 -0.0689,-0.10336 -0.0689,-0.24116 v -19.327 h -6.27008 q -0.13781,0 -0.25838,-0.0689 -0.10336,-0.0689 -0.17226,-0.20671 -0.0689,-0.15503 -0.12058,-0.39618 -0.0345,-0.24116 -0.0345,-0.56844 0,-0.32729 0.0345,-0.56844 0.0517,-0.25839 0.12058,-0.41342 0.0689,-0.15503 0.17226,-0.22393 0.12057,-0.0689 0.25838,-0.0689 h 15.50294 q 0.1378,0 0.24115,0.0689 0.12058,0.0689 0.18949,0.22393 0.0861,0.15503 0.12057,0.41342 0.0344,0.24115 0.0344,0.56844 z"
         style="font-style:normal;font-variant:normal;font-weight:normal;font-stretch:normal;font-size:35.2778px;font-family:Calibri;-inkscape-font-specification:Calibri;stroke-width:0.264583"
         id="path1464" />
    </g>
  </g>
</svg>
